<?xml version="1.0" standalone="no"?>
<!DOCTYPE svg PUBLIC "-//W3C//DTD SVG 20010904//EN"
 "http://www.w3.org/TR/2001/REC-SVG-20010904/DTD/svg10.dtd">
<svg version="1.0" xmlns="http://www.w3.org/2000/svg"
 width="500.000000pt" height="500.000000pt" viewBox="0 0 500.000000 500.000000"
 preserveAspectRatio="xMidYMid meet">

<g transform="translate(0.000000,500.000000) scale(0.100000,-0.100000)"
fill="#000000" stroke="none">
<path d="M0 2500 l0 -2500 2500 0 2500 0 0 2500 0 2500 -2500 0 -2500 0 0
-2500z m2798 1010 c89 -204 90 -205 65 -208 -39 -5 -49 3 -69 57 l-18 51 -97
0 -97 0 -23 -55 c-15 -37 -28 -55 -40 -55 -14 0 -4 31 58 173 41 94 84 192 95
216 11 27 22 41 28 35 5 -5 49 -101 98 -214z m1254 210 c68 -19 128 -110 128
-196 0 -49 -27 -127 -55 -157 -56 -60 -160 -90 -231 -67 -105 34 -159 156
-124 282 30 107 161 171 282 138z m-2004 -151 c37 -81 71 -148 76 -149 5 0 38
66 74 149 65 149 66 151 98 151 31 0 31 -1 37 -57 4 -32 9 -127 13 -210 l7
-153 -30 0 c-30 0 -30 1 -37 61 -3 34 -6 96 -7 138 0 42 -3 93 -7 115 -7 38
-8 36 -82 -131 -41 -93 -79 -171 -85 -172 -5 -2 -44 72 -85 165 l-75 168 -6
-60 c-4 -32 -7 -96 -8 -140 -1 -97 -9 -144 -25 -144 -8 0 -8 53 1 202 6 112
12 207 12 211 1 5 15 7 32 5 29 -3 34 -11 97 -149z m1218 135 c50 -24 70 -66
55 -116 -10 -32 -20 -43 -59 -61 -26 -12 -49 -23 -51 -24 -1 -1 34 -46 79 -99
71 -85 80 -99 64 -105 -42 -17 -53 -8 -126 96 -56 80 -78 105 -95 105 -22 0
-23 -3 -23 -100 l0 -100 -35 0 -35 0 0 210 0 210 96 0 c68 0 106 -5 130 -16z
m324 -194 l0 -210 -30 0 -30 0 0 210 0 210 30 0 30 0 0 -210z m-2336 -308 c71
-33 163 -113 202 -174 15 -24 32 -38 45 -38 11 0 34 -13 50 -29 23 -23 29 -38
29 -71 0 -63 -42 -98 -110 -91 -68 7 -101 87 -64 151 16 27 16 29 -14 71 -54
74 -136 130 -227 154 -33 8 -63 15 -67 15 -4 0 -8 -29 -8 -65 0 -61 1 -65 23
-65 12 0 42 -10 67 -21 139 -62 204 -229 146 -369 -5 -11 11 -26 58 -53 61
-36 98 -67 80 -67 -24 0 -115 30 -135 44 -13 9 -32 13 -46 10 -13 -4 -30 -3
-39 0 -15 6 -15 8 -2 24 34 38 51 88 51 147 0 201 -237 311 -384 178 -58 -52
-79 -99 -79 -176 0 -63 -1 -64 -24 -60 -32 7 -41 46 -26 118 22 104 119 207
211 221 l39 7 0 82 c0 45 3 85 8 89 4 5 39 6 78 4 52 -4 89 -13 138 -36z
m-434 -47 c38 -39 35 -98 -9 -137 -27 -24 -40 -29 -69 -26 -34 4 -35 3 -60
-51 -13 -31 -27 -84 -30 -118 -5 -64 -8 -68 -36 -57 -32 12 -11 153 35 232 14
25 16 38 8 59 -18 48 10 107 61 126 27 11 74 -3 100 -28z m318 -295 c91 -91
-8 -239 -123 -184 -42 20 -65 58 -65 110 0 28 8 44 34 70 29 29 41 34 79 34
37 0 51 -6 75 -30z m1797 -29 c22 -4 31 -13 33 -30 3 -20 1 -23 -15 -17 -10 4
-42 13 -71 19 -62 13 -85 4 -90 -37 -5 -40 18 -68 101 -119 84 -53 107 -81
107 -131 0 -74 -83 -125 -179 -111 -75 11 -91 16 -91 32 0 11 6 13 23 8 36
-12 105 -18 133 -11 16 4 30 19 38 38 22 51 4 81 -72 129 -89 55 -111 76 -118
114 -16 89 77 143 201 116z m790 0 c21 -4 31 -13 33 -29 2 -12 2 -22 0 -22 -2
0 -25 7 -52 15 -27 8 -64 15 -81 15 -42 0 -94 -36 -123 -85 -31 -54 -29 -178
4 -222 38 -51 81 -73 145 -73 l59 0 0 80 0 80 30 0 30 0 0 -85 c0 -84 0 -85
-27 -92 -57 -16 -176 -8 -218 14 -80 42 -115 98 -115 184 0 157 143 257 315
220z m-1730 -25 c90 -42 125 -96 125 -191 0 -67 -13 -101 -53 -143 -41 -43
-109 -62 -219 -62 l-88 0 0 210 0 210 93 0 c76 0 101 -4 142 -24z m555 4 c0
-23 1 -23 -74 -9 -32 5 -71 7 -87 4 l-29 -7 0 -79 0 -79 70 0 c40 0 70 -4 70
-10 0 -6 -30 -10 -70 -10 l-70 0 0 -93 0 -93 68 7 c110 13 122 12 122 -11 0
-19 -7 -20 -130 -20 l-130 0 0 210 0 210 130 0 c123 0 130 -1 130 -20z m690
-190 l0 -210 -30 0 -30 0 0 210 0 210 30 0 30 0 0 -210z m895 57 l120 -152 3
153 c2 126 5 152 17 152 13 0 15 -32 15 -209 0 -116 -4 -212 -8 -215 -4 -2
-71 74 -147 171 l-140 175 -3 -171 c-2 -143 -5 -171 -17 -171 -13 0 -15 31
-15 210 l0 210 28 0 c23 0 44 -22 147 -153z m-2377 -483 c28 -20 30 -69 3 -84
-11 -5 -33 -10 -50 -10 -31 0 -31 0 -31 55 0 53 1 55 28 55 15 0 38 -7 50 -16z
m232 6 c0 -5 -13 -10 -30 -10 -39 0 -42 -29 -2 -31 l27 -2 -27 -4 c-42 -6 -38
-40 5 -46 28 -3 26 -4 -10 -5 l-43 -2 0 48 c0 27 3 52 7 55 10 11 73 8 73 -3z
m195 1 c3 -5 -6 -11 -20 -13 -32 -4 -38 -22 -8 -26 32 -5 49 -28 33 -47 -14
-17 -56 -20 -65 -6 -3 6 7 9 21 8 38 -3 41 19 4 31 -31 11 -38 30 -18 50 14
14 44 16 53 3z m215 -48 c21 -48 21 -64 0 -38 -17 20 -57 19 -69 -2 -5 -10
-11 -16 -14 -13 -7 9 44 110 53 105 5 -3 19 -27 30 -52z m211 47 c21 -12 27
-60 7 -60 -9 0 -9 -3 0 -12 19 -19 14 -33 -6 -15 -24 22 -49 22 -55 0 -3 -10
-5 8 -6 40 -1 51 1 57 20 57 11 0 29 -5 40 -10z m220 0 c20 -11 26 -45 9 -55
-7 -4 -7 -13 0 -26 6 -11 7 -19 1 -19 -5 0 -11 7 -15 15 -8 21 -44 19 -49 -2
-3 -10 -5 8 -6 40 -1 51 1 57 20 57 11 0 29 -5 40 -10z m237 -6 c58 -40 -5
-118 -69 -84 -39 21 -11 100 36 100 6 0 21 -7 33 -16z m172 -39 c0 -40 2 -44
28 -48 22 -3 20 -4 -10 -6 l-38 -1 0 56 c0 34 4 53 10 49 6 -3 10 -26 10 -50z
m200 0 c0 -40 2 -44 28 -48 22 -3 20 -4 -10 -6 l-38 -1 0 56 c0 34 4 53 10 49
6 -3 10 -26 10 -50z m250 -2 c21 -48 21 -64 0 -38 -17 20 -57 19 -69 -2 -5
-10 -11 -16 -14 -13 -7 9 44 110 53 105 5 -3 19 -27 30 -52z m228 41 c45 -31
15 -94 -45 -94 l-33 0 0 55 c0 53 1 55 28 55 15 0 38 -7 50 -16z m228 8 c6 -4
16 -16 22 -28 28 -54 -57 -103 -92 -52 -21 30 -20 44 4 68 21 21 47 25 66 12z
m225 -2 c21 -12 27 -60 7 -60 -9 0 -9 -3 0 -12 19 -19 14 -33 -6 -15 -24 22
-49 22 -55 0 -3 -10 -5 8 -6 40 -1 51 1 57 20 57 11 0 29 -5 40 -10z m-1198
-187 c-7 -2 -19 -2 -25 0 -7 3 -2 5 12 5 14 0 19 -2 13 -5z m-1180 -63 c2 3
10 16 16 28 7 13 15 21 18 19 2 -3 -4 -20 -14 -39 -10 -18 -21 -42 -24 -53
l-7 -20 -1 20 c-1 11 -10 35 -21 53 -27 44 -25 53 5 17 13 -16 26 -27 28 -25z
m395 34 c28 -20 30 -69 3 -84 -11 -5 -33 -10 -50 -10 -31 0 -31 0 -31 55 0 53
1 55 28 55 15 0 38 -7 50 -16z m172 -39 c0 -30 -4 -55 -10 -55 -11 0 -14 93
-3 103 12 12 13 8 13 -48z m200 45 c11 -7 7 -10 -17 -10 -41 0 -43 -18 -2 -32
23 -8 29 -16 27 -32 -3 -24 -53 -35 -71 -17 -8 8 -3 10 20 5 44 -9 49 11 8 35
-39 23 -43 35 -17 50 22 13 33 13 52 1z m220 0 c0 -5 -13 -10 -30 -10 -39 0
-42 -29 -2 -31 l27 -2 -27 -4 c-42 -6 -38 -40 5 -46 28 -3 26 -4 -10 -5 l-43
-2 0 48 c0 27 3 52 7 55 10 11 73 8 73 -3z m179 -34 l31 -39 0 42 c0 26 4 40
10 36 12 -8 13 -105 1 -105 -5 0 -23 17 -40 38 l-30 37 -1 -37 c0 -21 -4 -38
-10 -38 -11 0 -14 93 -3 103 3 4 7 6 9 5 1 -2 16 -20 33 -42z m256 -8 c23 -49
25 -84 4 -45 -6 9 -21 17 -34 17 -13 0 -28 -8 -34 -17 -5 -10 -12 -16 -14 -13
-6 6 40 110 48 110 3 0 17 -23 30 -52z m220 40 c24 -11 30 -24 25 -58 -2 -23
-31 -40 -67 -40 -33 0 -33 0 -33 48 0 27 3 52 7 55 10 10 39 8 68 -5z m243 -4
c44 -30 21 -94 -34 -94 -25 0 -54 30 -54 56 0 22 33 54 55 54 6 0 21 -7 33
-16z m223 6 c21 -12 25 -40 7 -58 -8 -8 -8 -15 2 -27 9 -11 9 -15 1 -15 -6 0
-14 7 -17 15 -4 8 -15 15 -25 15 -10 0 -19 -7 -19 -15 0 -8 -4 -15 -10 -15
-11 0 -14 93 -3 103 10 10 42 8 64 -3z m-1336 -240 c10 -44 21 -44 34 1 14 46
25 44 42 -9 l12 -37 19 40 c13 29 17 33 13 13 -8 -43 -24 -78 -34 -78 -5 0
-12 13 -16 30 -10 43 -22 45 -35 5 -6 -19 -15 -35 -20 -35 -8 0 -40 83 -40
102 0 20 19 -4 25 -32z m335 30 c0 -5 -13 -10 -30 -10 -39 0 -42 -29 -2 -31
l27 -2 -27 -4 c-42 -6 -38 -40 5 -46 31 -4 31 -4 -5 -5 l-38 -2 0 55 0 55 35
0 c19 0 35 -4 35 -10z m208 1 c8 -4 12 -17 11 -27 -2 -11 0 -25 5 -32 12 -20
-13 -42 -50 -42 l-34 0 0 55 c0 53 1 55 28 55 15 0 33 -4 40 -9z"/>
<path d="M2637 3547 c-20 -51 -37 -95 -37 -99 0 -5 36 -8 80 -8 44 0 80 1 80
3 0 5 -77 187 -81 191 -2 2 -21 -37 -42 -87z"/>
<path d="M3898 3670 c-51 -42 -72 -102 -66 -188 8 -113 50 -165 133 -165 24 0
55 7 69 16 64 42 94 180 59 272 -35 93 -124 123 -195 65z"/>
<path d="M3133 3693 c-22 -4 -23 -9 -23 -90 l0 -86 52 5 c93 9 129 88 69 149
-28 28 -46 32 -98 22z"/>
<path d="M1450 2911 c-16 -31 4 -63 37 -59 34 4 52 32 37 56 -16 26 -60 28
-74 3z"/>
<path d="M720 3116 c-6 -8 -10 -25 -8 -38 2 -18 10 -24 35 -26 28 -3 33 1 39
23 11 45 -37 75 -66 41z"/>
<path d="M1022 2824 c-45 -31 -20 -107 36 -107 42 0 62 19 62 58 0 56 -51 82
-98 49z"/>
<path d="M1842 2803 l-22 -4 2 -182 3 -182 57 1 c121 2 192 95 169 221 -20
107 -105 166 -209 146z"/>
<path d="M1700 2150 c0 -33 3 -40 19 -40 22 0 51 25 51 44 0 19 -22 36 -47 36
-20 0 -23 -5 -23 -40z"/>
<path d="M2356 2165 c-8 -22 -3 -28 19 -23 14 3 14 5 2 22 -13 18 -14 18 -21
1z"/>
<path d="M2560 2170 c0 -17 5 -21 28 -18 16 2 27 9 27 18 0 9 -11 16 -27 18
-23 3 -28 -1 -28 -18z"/>
<path d="M2780 2170 c0 -14 7 -20 23 -20 13 0 26 3 30 6 12 12 -6 34 -29 34
-17 0 -24 -6 -24 -20z"/>
<path d="M3001 2176 c-28 -33 22 -83 55 -55 8 7 14 24 12 38 -2 20 -9 27 -29
29 -14 2 -31 -4 -38 -12z"/>
<path d="M3646 2165 c-8 -22 -3 -28 19 -23 14 3 14 5 2 22 -13 18 -14 18 -21
1z"/>
<path d="M3850 2155 c0 -40 17 -53 50 -35 15 8 20 19 18 38 -2 22 -9 28 -35
30 -32 3 -33 2 -33 -33z"/>
<path d="M4087 2183 c-14 -14 -6 -53 13 -63 40 -22 80 26 48 58 -13 13 -50 16
-61 5z"/>
<path d="M4320 2170 c0 -17 5 -21 28 -18 16 2 27 9 27 18 0 9 -11 16 -27 18
-23 3 -28 -1 -28 -18z"/>
<path d="M2330 1940 c0 -33 3 -40 19 -40 22 0 51 25 51 44 0 19 -22 36 -47 36
-20 0 -23 -5 -23 -40z"/>
<path d="M3374 1957 c-8 -22 -1 -30 21 -25 14 3 14 5 1 23 -14 19 -15 19 -22
2z"/>
<path d="M3580 1940 c0 -43 13 -50 51 -30 37 20 17 70 -28 70 -20 0 -23 -5
-23 -40z"/>
<path d="M3817 1973 c-12 -12 -7 -50 8 -63 17 -14 51 -5 59 16 13 35 -41 73
-67 47z"/>
<path d="M4050 1960 c0 -15 7 -20 25 -20 18 0 25 5 25 20 0 15 -7 20 -25 20
-18 0 -25 -5 -25 -20z"/>
<path d="M3250 1755 c0 -12 7 -15 25 -13 14 2 26 8 26 13 0 6 -12 11 -26 13
-18 2 -25 -1 -25 -13z"/>
<path d="M3250 1710 c0 -17 5 -21 28 -18 16 2 27 9 27 18 0 9 -11 16 -27 18
-23 3 -28 -1 -28 -18z"/>
</g>
</svg>
